<?xml version="1.0" encoding="UTF-8" standalone="no"?>
<svg
   xmlns:dc="http://purl.org/dc/elements/1.1/"
   xmlns:cc="http://creativecommons.org/ns#"
   xmlns:rdf="http://www.w3.org/1999/02/22-rdf-syntax-ns#"
   xmlns:svg="http://www.w3.org/2000/svg"
   xmlns="http://www.w3.org/2000/svg"
   version="1.1"
   id="svg2"
   width="682.66669"
   height="682.66669"
   viewBox="0 0 682.66669 682.66669">
  <metadata
     id="metadata8">
    <rdf:RDF>
      <cc:Work
         rdf:about="">
        <dc:format>image/svg+xml</dc:format>
        <dc:type
           rdf:resource="http://purl.org/dc/dcmitype/StillImage" />
        <dc:title></dc:title>
      </cc:Work>
    </rdf:RDF>
  </metadata>
  <defs
     id="defs6" />
  <g
     id="layer2"
     style="display:inline">
    <path
       style="fill:#ffffff;fill-opacity:1;stroke:none;stroke-width:0.33259842;stroke-miterlimit:4;stroke-dasharray:none;stroke-opacity:1"
       d="m 205.37853,386.1695 44.83616,-194.53108 199.59323,0.72317 -18.80226,253.10735 -67.25424,14.46327 -112.0904,-5.78531 z"
       id="rect1456" />
    <path
       style="fill:#c50000;fill-opacity:1;stroke-width:1.33333337;stroke:none"
       d="M 327.5708,630.29345 C 325.25969,602.95303 306.73546,562.18301 275.33766,515.33335 254.5999,484.38988 234.8627,458.68752 191.3791,406.00001 c -25.16148,-30.48725 -55.07128,-72.05784 -70.99011,-98.66667 -22.634881,-37.8349 -38.459954,-75.22692 -43.168518,-102 -2.259793,-12.84928 -2.253291,-36.55395 0.01352,-49.29229 7.526206,-42.2935 39.170048,-79.808823 80.270048,-95.16408 37.8811,-14.152648 78.5353,-9.360396 112.64149,13.277997 10.59454,7.032266 30.26093,26.006153 38.53528,37.178373 12.57488,16.97892 26.52977,43.96652 29.33227,56.72615 1.22554,5.57989 5.46533,5.35066 6.72034,-0.36335 2.78416,-12.67623 16.69447,-39.44568 29.28799,-56.3628 7.97203,-10.70898 23.29067,-26.065416 33.9786,-34.062464 10.80821,-8.08704 32.32062,-18.122274 46,-21.458353 22.9441,-5.595523 51.32262,-3.101841 74.96513,6.58735 39.02738,15.99423 69.18572,52.920197 76.47904,93.641177 3.59728,20.08488 1.94124,45.80257 -4.33318,67.29229 -15.17869,51.98668 -50.25076,109.27052 -118.36843,193.33334 -30.78913,37.99634 -50.2591,62.86134 -62.11584,79.32784 -38.86348,53.97319 -62.90588,103.24571 -65.53084,134.29893 l -0.8205,9.70657 H 341.33334 328.3913 Z M 281.72082,437.66668 c 1.10559,-4.95 4.2759,-19.95 7.04512,-33.33333 l 5.03496,-24.33334 h 27.76623 c 23.09692,0 27.76622,0.31839 27.76622,1.89334 0,1.88482 -3.77512,20.02924 -10.04247,48.26721 -1.80998,8.15496 -3.29087,15.20496 -3.29087,15.66667 0,0.46169 6.25958,0.83945 13.91015,0.83945 12.11672,0 13.99211,-0.30084 14.5458,-2.33333 0.34961,-1.28333 1.9074,-8.33334 3.46176,-15.66667 1.55436,-7.33333 4.51976,-21.13333 6.58979,-30.66667 l 3.76368,-17.33333 24.86441,-0.36276 24.86441,-0.36275 v -13.30392 -13.3039 h -21.78317 -21.78319 l 5.70091,-26.69054 c 3.13549,-14.67979 6.07836,-27.87979 6.53969,-29.33333 0.78523,-2.47403 2.06774,-2.6428 20.08228,-2.6428 h 19.24348 v -13.2935 -13.2935 l -16.42293,-0.37316 -16.42293,-0.37318 6.22804,-29.33333 c 3.42542,-16.13334 6.66341,-31.28334 7.19553,-33.66667 l 0.96751,-4.33333 h -14.0161 c -12.18646,0 -14.10973,0.30458 -14.73348,2.33333 -0.39456,1.28333 -2.54456,11.03333 -4.77776,21.66667 -2.23321,10.63333 -5.32477,24.88333 -6.87016,31.66667 l -2.80978,12.33333 h -27.99114 -27.99115 l 0.806,-3 c 0.4433,-1.65 3.54496,-15.9 6.89259,-31.66667 3.34763,-15.76667 6.40192,-29.73744 6.78735,-31.04617 0.64669,-2.19594 -0.40936,-2.35023 -13.68956,-2 l -14.39032,0.3795 -1.02942,4.66667 c -0.56617,2.56667 -3.15294,14.56667 -5.74838,26.66667 -2.59543,12.1 -5.39906,25.15 -6.23028,29 l -1.51131,7 H 266.4545 242.66667 v 13.33333 13.33334 h 20.66667 c 11.36667,0 20.66667,0.40706 20.66667,0.90458 0,0.49752 -2.04917,10.24752 -4.55371,21.66667 -2.50454,11.41915 -5.24708,24.21208 -6.09453,28.42875 l -1.54083,7.66667 h -18.57213 -18.57214 v 13.33333 13.33333 h 15.33334 c 8.43333,0 15.33333,0.316 15.33333,0.70222 0,0.38621 -3,14.82928 -6.66666,32.09569 -3.66667,17.26641 -6.66667,31.95043 -6.66667,32.63112 0,0.6819 6.22155,1.23764 13.85533,1.23764 h 13.85534 z m 18.93015,-87.33333 c 1.56161,-6.67576 10.20775,-47.29571 10.92653,-51.33334 l 0.77142,-4.33333 h 28.27846 28.27847 l -4.28152,19 c -2.35484,10.45 -5.29958,23.65 -6.54388,29.33333 l -2.26233,10.33334 h -27.93446 -27.93445 z"
       id="path828" />
  </g>
</svg>
